<svg xmlns="http://www.w3.org/2000/svg" viewBox="0 0 685.75 769.688"><switch><g><path d="M683.795 586.935c-.485-.568-1.048-1.052-1.048-1.052a9.603 9.603 0 00-1.342-.968 10.463 10.463 0 00-1.519-.881c-2.542-1.201-4.902-1.045-6.526-.938 0 0-2.505.125-4.606 1.058a11.3 11.3 0 00-.445.209l-.369.208c-.284.163-.456.266-.736.431l-.641.373c-.497.289-2.373 1.326-4.942 2.716a35.143 35.143 0 01-4.785 1.175c-1.031.178-2.04.306-5.17.555-3.079.245-4.619.368-5.974.419a73.57 73.57 0 01-9.748-.314c-.245-.024-5.68-.576-11.635-2.096-4.048-1.033-16.897-4.317-27.663-11.227-20.164-12.94-27.442-35.021-30.582-44.547-5.252-15.934-5.39-29.203-5.399-32.884-.235-98.032-.353-147.048.45-194.433 1.353-79.876-31.721-182.537-108.015-243.53C378.311 1.417 295.732-.199 280.403.013 256.707.342 170.913 4.398 96.463 70.2 2 153.692 1.291 269.866 1.48 287.612.976 315.447-.711 415.012.335 501.927c.136 11.303.411 29.826 5.57 53.533 7.069 32.485 20.556 61.813 38.659 89.852 78.354 121.356 260.49 124.284 295.517 124.259 33.124-.024 81.061 2.575 140.195-15.538 0 0 116.729-35.878 198.775-140.745.988-1.262 1.898-2.565 1.898-2.565a59.95 59.95 0 001.638-2.474c.387-.648.878-1.547 1.349-2.662.202-.478.903-2.191 1.336-4.484 1.323-6.998-.413-12.922-1.477-14.168zM142.187 406.923c-34.2 0-61.925-43.749-61.925-97.717s27.725-97.717 61.925-97.717 61.925 43.749 61.925 97.717-27.724 97.717-61.925 97.717zm201.011 0c-34.2 0-61.925-43.749-61.925-97.717s27.725-97.717 61.925-97.717 61.925 43.749 61.925 97.717-27.725 97.717-61.925 97.717z" fill="#52e3d7"/></g></switch></svg>